<svg width="119" height="72" viewBox="0 0 119 72" fill="none" xmlns="http://www.w3.org/2000/svg">
<path d="M61.312 32.2963C70.2165 32.2963 77.4351 25.0665 77.4351 16.1481C77.4351 7.22977 70.2165 0 61.312 0C52.4075 0 45.189 7.22977 45.189 16.1481C45.189 25.0665 52.4075 32.2963 61.312 32.2963Z" fill="#F0A967"/>
<path d="M80.3194 52.2222C89.224 52.2222 96.4425 44.9925 96.4425 36.0741C96.4425 27.1557 89.224 19.9259 80.3194 19.9259C71.4149 19.9259 64.1964 27.1557 64.1964 36.0741C64.1964 44.9925 71.4149 52.2222 80.3194 52.2222Z" fill="#B6B6B6"/>
<path d="M101.841 72C111.318 72 119 64.3059 119 54.8148C119 45.3237 111.318 37.6296 101.841 37.6296C92.3651 37.6296 84.683 45.3237 84.683 54.8148C84.683 64.3059 92.3651 72 101.841 72Z" fill="#BBA3FF"/>
<path d="M96.4425 60.1481L101.066 49.9126H102.632L107.314 60.1481H105.415L104.169 57.2735L104.923 57.7816H98.7907L99.5739 57.2735L98.327 60.1481H96.4425ZM101.835 51.9161L99.7914 56.7653L99.4142 56.3153H104.285L103.98 56.7653L101.893 51.9161H101.835Z" fill="#2B2B2B"/>
<path d="M80.0983 41.7052C79.003 41.7052 78.0615 41.4857 77.2746 41.0468C76.498 40.5979 75.9004 39.9695 75.4818 39.1615C75.0639 38.3435 74.8546 37.3809 74.8546 36.2736C74.8546 35.1664 75.0639 34.2087 75.4818 33.4007C75.9004 32.5927 76.498 31.9693 77.2746 31.5304C78.0615 31.0815 79.003 30.857 80.0983 30.857C80.8357 30.857 81.4976 30.9618 82.0856 31.1713C82.6832 31.3807 83.1958 31.69 83.624 32.099L82.9968 33.6252C82.5286 33.2462 82.0753 32.9768 81.6374 32.8172C81.2092 32.6476 80.7159 32.5628 80.1582 32.5628C79.0925 32.5628 78.276 32.887 77.708 33.5354C77.1503 34.1739 76.8715 35.0866 76.8715 36.2736C76.8715 37.4607 77.1503 38.3784 77.708 39.0268C78.276 39.6752 79.0925 39.9994 80.1582 39.9994C80.7159 39.9994 81.2092 39.9196 81.6374 39.76C82.0753 39.5904 82.5286 39.3111 82.9968 38.9221L83.624 40.4483C83.1958 40.8473 82.6832 41.1565 82.0856 41.376C81.4976 41.5955 80.8357 41.7052 80.0983 41.7052Z" fill="#2B2B2B"/>
<path d="M57.1522 21.7037V11.1548H60.9768C62.1819 11.1548 63.1978 11.3643 64.0245 11.7833C64.8611 12.1922 65.4935 12.7907 65.9218 13.5788C66.3501 14.3569 66.5642 15.3045 66.5642 16.4218C66.5642 17.529 66.3501 18.4767 65.9218 19.2647C65.4935 20.0528 64.8611 20.6563 64.0245 21.0753C63.1978 21.4942 62.1819 21.7037 60.9768 21.7037H57.1522ZM59.0794 20.1027H60.8573C62.1321 20.1027 63.0783 19.7984 63.6958 19.1899C64.3133 18.5814 64.622 17.6587 64.622 16.4218C64.622 15.1749 64.3133 14.2521 63.6958 13.6536C63.0783 13.0451 62.1321 12.7409 60.8573 12.7409H59.0794V20.1027Z" fill="#2B2B2B"/>
<path d="M12.6867 50.2993C10.0064 50.2993 7.98132 49.5983 6.61138 48.1964C5.24146 46.7946 4.5565 44.6918 4.5565 41.888V31.4634H0.223389V27.2578H4.5565V21.4862L10.1404 20.0545V27.2578H16.171V31.4634H10.1404V41.5301C10.1404 43.0811 10.4382 44.1698 11.0338 44.7961C11.6294 45.4225 12.4484 45.7357 13.4908 45.7357C14.0566 45.7357 14.5331 45.691 14.9202 45.6015C15.3371 45.512 15.7392 45.3927 16.1264 45.2436V49.6729C15.6201 49.8817 15.0542 50.0308 14.4288 50.1203C13.8333 50.2396 13.2525 50.2993 12.6867 50.2993ZM30.4222 50.2993C28.0993 50.2993 26.0891 49.822 24.3916 48.8675C22.6941 47.9131 21.3688 46.5559 20.4158 44.7961C19.4926 43.0364 19.031 40.9484 19.031 38.5324C19.031 36.1164 19.4926 34.0435 20.4158 32.3135C21.3688 30.5537 22.6941 29.1965 24.3916 28.2421C26.0891 27.2876 28.0993 26.8104 30.4222 26.8104C32.7451 26.8104 34.7553 27.2876 36.4528 28.2421C38.1801 29.1965 39.5054 30.5537 40.4286 32.3135C41.3816 34.0435 41.858 36.1164 41.858 38.5324C41.858 40.9484 41.3816 43.0364 40.4286 44.7961C39.5054 46.5559 38.1801 47.9131 36.4528 48.8675C34.7553 49.822 32.7451 50.2993 30.4222 50.2993ZM30.4222 46.0041C32.1792 46.0041 33.579 45.3927 34.6213 44.1698C35.6636 42.917 36.1848 41.0379 36.1848 38.5324C36.1848 36.027 35.6636 34.1627 34.6213 32.9398C33.579 31.717 32.1792 31.1055 30.4222 31.1055C28.6652 31.1055 27.2654 31.717 26.2231 32.9398C25.1808 34.1627 24.6596 36.027 24.6596 38.5324C24.6596 41.0379 25.1808 42.917 26.2231 44.1698C27.2654 45.3927 28.6652 46.0041 30.4222 46.0041Z" fill="black"/>
</svg>
